TITLE ""
FILE "2Q_j_1677-1690.mp3" MP3
  TRACK 01 AUDIO
    TITLE "2Q_j_1677-1690_01"
    INDEX 01 00:00:00
  TRACK 02 AUDIO
    TITLE "2Q_j_1677-1690_02"
    INDEX 01 00:01:33
  TRACK 03 AUDIO
    TITLE "2Q_j_1677-1690_03"
    INDEX 01 00:02:07
  TRACK 04 AUDIO
    TITLE "2Q_j_1677-1690_04"
    INDEX 01 00:04:37
  TRACK 05 AUDIO
    TITLE "2Q_j_1677-1690_05"
    INDEX 01 00:05:10
  TRACK 06 AUDIO
    TITLE "2Q_j_1677-1690_06"
    INDEX 01 00:08:24
  TRACK 07 AUDIO
    TITLE "2Q_j_1677-1690_07"
    INDEX 01 00:08:69
  TRACK 08 AUDIO
    TITLE "2Q_j_1677-1690_08"
    INDEX 01 00:10:26
  TRACK 09 AUDIO
    TITLE "2Q_j_1677-1690_09"
    INDEX 01 00:10:73
  TRACK 10 AUDIO
    TITLE "2Q_j_1677-1690_10"
    INDEX 01 00:12:23
  TRACK 11 AUDIO
    TITLE "2Q_j_1677-1690_11"
    INDEX 01 00:12:68
  TRACK 12 AUDIO
    TITLE "2Q_j_1677-1690_12"
    INDEX 01 00:15:18
  TRACK 13 AUDIO
    TITLE "2Q_j_1677-1690_13"
    INDEX 01 00:15:65
  TRACK 14 AUDIO
    TITLE "2Q_j_1677-1690_14"
    INDEX 01 00:17:13
  TRACK 15 AUDIO
    TITLE "2Q_j_1677-1690_15"
    INDEX 01 00:17:58
  TRACK 16 AUDIO
    TITLE "2Q_j_1677-1690_16"
    INDEX 01 00:19:63
  TRACK 17 AUDIO
    TITLE "2Q_j_1677-1690_17"
    INDEX 01 00:20:31
  TRACK 18 AUDIO
    TITLE "2Q_j_1677-1690_18"
    INDEX 01 00:24:09
  TRACK 19 AUDIO
    TITLE "2Q_j_1677-1690_19"
    INDEX 01 00:24:56
  TRACK 20 AUDIO
    TITLE "2Q_j_1677-1690_20"
    INDEX 01 00:25:63
  TRACK 21 AUDIO
    TITLE "2Q_j_1677-1690_21"
    INDEX 01 00:26:45
  TRACK 22 AUDIO
    TITLE "2Q_j_1677-1690_22"
    INDEX 01 00:31:01
  TRACK 23 AUDIO
    TITLE "2Q_j_1677-1690_23"
    INDEX 01 00:31:46
  TRACK 24 AUDIO
    TITLE "2Q_j_1677-1690_24"
    INDEX 01 00:35:24
  TRACK 25 AUDIO
    TITLE "2Q_j_1677-1690_25"
    INDEX 01 00:35:73
  TRACK 26 AUDIO
    TITLE "2Q_j_1677-1690_26"
    INDEX 01 00:36:69
  TRACK 27 AUDIO
    TITLE "2Q_j_1677-1690_27"
    INDEX 01 00:37:53
  TRACK 28 AUDIO
    TITLE "2Q_j_1677-1690_28"
    INDEX 01 00:39:36
  TRACK 29 AUDIO
    TITLE "2Q_j_1677-1690_29"
    INDEX 01 00:40:06
  TRACK 30 AUDIO
    TITLE "2Q_j_1677-1690_30"
    INDEX 01 00:43:71
  TRACK 31 AUDIO
    TITLE "2Q_j_1677-1690_31"
    INDEX 01 00:44:43
  TRACK 32 AUDIO
    TITLE "2Q_j_1677-1690_32"
    INDEX 01 00:46:18
  TRACK 33 AUDIO
    TITLE "2Q_j_1677-1690_33"
    INDEX 01 00:46:63
  TRACK 34 AUDIO
    TITLE "2Q_j_1677-1690_34"
    INDEX 01 00:48:33
  TRACK 35 AUDIO
    TITLE "2Q_j_1677-1690_35"
    INDEX 01 00:49:05
  TRACK 36 AUDIO
    TITLE "2Q_j_1677-1690_36"
    INDEX 01 00:51:74
  TRACK 37 AUDIO
    TITLE "2Q_j_1677-1690_37"
    INDEX 01 00:52:48
  TRACK 38 AUDIO
    TITLE "2Q_j_1677-1690_38"
    INDEX 01 00:53:57
  TRACK 39 AUDIO
    TITLE "2Q_j_1677-1690_39"
    INDEX 01 00:54:41
  TRACK 40 AUDIO
    TITLE "2Q_j_1677-1690_40"
    INDEX 01 00:59:03
  TRACK 41 AUDIO
    TITLE "2Q_j_1677-1690_41"
    INDEX 01 00:59:48
  TRACK 42 AUDIO
    TITLE "2Q_j_1677-1690_42"
    INDEX 01 01:04:51
  TRACK 43 AUDIO
    TITLE "2Q_j_1677-1690_43"
    INDEX 01 01:05:25
  TRACK 44 AUDIO
    TITLE "2Q_j_1677-1690_44"
    INDEX 01 01:06:54
  TRACK 45 AUDIO
    TITLE "2Q_j_1677-1690_45"
    INDEX 01 01:07:24
  TRACK 46 AUDIO
    TITLE "2Q_j_1677-1690_46"
    INDEX 01 01:10:31
  TRACK 47 AUDIO
    TITLE "2Q_j_1677-1690_47"
    INDEX 01 01:10:74
  TRACK 48 AUDIO
    TITLE "2Q_j_1677-1690_48"
    INDEX 01 01:16:19
  TRACK 49 AUDIO
    TITLE "2Q_j_1677-1690_49"
    INDEX 01 01:16:64
  TRACK 50 AUDIO
    TITLE "2Q_j_1677-1690_50"
    INDEX 01 01:18:10
  TRACK 51 AUDIO
    TITLE "2Q_j_1677-1690_51"
    INDEX 01 01:18:55
  TRACK 52 AUDIO
    TITLE "2Q_j_1677-1690_52"
    INDEX 01 01:19:59
  TRACK 53 AUDIO
    TITLE "2Q_j_1677-1690_53"
    INDEX 01 01:20:29
  TRACK 54 AUDIO
    TITLE "2Q_j_1677-1690_54"
    INDEX 01 01:25:07
  TRACK 55 AUDIO
    TITLE "2Q_j_1677-1690_55"
    INDEX 01 01:25:54
  TRACK 56 AUDIO
    TITLE "2Q_j_1677-1690_56"
    INDEX 01 01:26:59
  TRACK 57 AUDIO
    TITLE "2Q_j_1677-1690_57"
    INDEX 01 01:27:39
  TRACK 58 AUDIO
    TITLE "2Q_j_1677-1690_58"
    INDEX 01 01:31:39
  TRACK 59 AUDIO
    TITLE "2Q_j_1677-1690_59"
    INDEX 01 01:32:07
  TRACK 60 AUDIO
    TITLE "2Q_j_1677-1690_60"
    INDEX 01 01:35:30
  TRACK 61 AUDIO
    TITLE "2Q_j_1677-1690_61"
    INDEX 01 01:36:01
  TRACK 62 AUDIO
    TITLE "2Q_j_1677-1690_62"
    INDEX 01 01:37:57
  TRACK 63 AUDIO
    TITLE "2Q_j_1677-1690_63"
    INDEX 01 01:38:29
  TRACK 64 AUDIO
    TITLE "2Q_j_1677-1690_64"
    INDEX 01 01:42:72
  TRACK 65 AUDIO
    TITLE "2Q_j_1677-1690_65"
    INDEX 01 01:43:44
  TRACK 66 AUDIO
    TITLE "2Q_j_1677-1690_66"
    INDEX 01 01:47:39
  TRACK 67 AUDIO
    TITLE "2Q_j_1677-1690_67"
    INDEX 01 01:48:10
  TRACK 68 AUDIO
    TITLE "2Q_j_1677-1690_68"
    INDEX 01 01:49:60
  TRACK 69 AUDIO
    TITLE "2Q_j_1677-1690_69"
    INDEX 01 01:50:30
  TRACK 70 AUDIO
    TITLE "2Q_j_1677-1690_70"
    INDEX 01 01:52:49
  TRACK 71 AUDIO
    TITLE "2Q_j_1677-1690_71"
    INDEX 01 01:53:17
  TRACK 72 AUDIO
    TITLE "2Q_j_1677-1690_72"
    INDEX 01 01:56:58
  TRACK 73 AUDIO
    TITLE "2Q_j_1677-1690_73"
    INDEX 01 01:57:28
  TRACK 74 AUDIO
    TITLE "2Q_j_1677-1690_74"
    INDEX 01 01:58:51
  TRACK 75 AUDIO
    TITLE "2Q_j_1677-1690_75"
    INDEX 01 01:59:23
  TRACK 76 AUDIO
    TITLE "2Q_j_1677-1690_76"
    INDEX 01 02:04:05
  TRACK 77 AUDIO
    TITLE "2Q_j_1677-1690_77"
    INDEX 01 02:04:50
  TRACK 78 AUDIO
    TITLE "2Q_j_1677-1690_78"
    INDEX 01 02:07:60
  TRACK 79 AUDIO
    TITLE "2Q_j_1677-1690_79"
    INDEX 01 02:08:30
  TRACK 80 AUDIO
    TITLE "2Q_j_1677-1690_80"
    INDEX 01 02:10:25
  TRACK 81 AUDIO
    TITLE "2Q_j_1677-1690_81"
    INDEX 01 02:11:01
  TRACK 82 AUDIO
    TITLE "2Q_j_1677-1690_82"
    INDEX 01 02:12:75
  TRACK 83 AUDIO
    TITLE "2Q_j_1677-1690_83"
    INDEX 01 02:13:45
  TRACK 84 AUDIO
    TITLE "2Q_j_1677-1690_84"
    INDEX 01 02:17:05
